<svg width="10" height="13" viewBox="0 0 10 13" fill="none" xmlns="http://www.w3.org/2000/svg">
<path d="M9.01648 2.56995C8.66104 1.86916 8.13513 1.26896 7.48709 0.824535C6.83906 0.380113 6.0897 0.105731 5.30791 0.0266132C4.95425 -0.00887108 4.59793 -0.00887108 4.24427 0.0266132C3.46249 0.105783 2.71315 0.380157 2.0651 0.824526C1.41704 1.2689 0.891056 1.86901 0.535471 2.56972C0.0880914 3.46379 -0.0847127 4.47025 0.0388236 5.46234C0.16236 6.45444 0.576711 7.38779 1.22969 8.14484L4.41386 12.0161C4.45784 12.0696 4.51312 12.1127 4.57573 12.1423C4.63834 12.1719 4.70673 12.1872 4.77597 12.1872C4.84522 12.1872 4.91361 12.1719 4.97622 12.1423C5.03883 12.1127 5.09411 12.0696 5.13808 12.0161L8.32226 8.14484C8.97523 7.38783 9.38958 6.45452 9.51311 5.46246C9.63665 4.47041 9.46385 3.46398 9.01648 2.56995ZM4.77597 6.56211C4.40513 6.56211 4.04262 6.45214 3.73428 6.24611C3.42594 6.04008 3.18561 5.74725 3.0437 5.40464C2.90178 5.06203 2.86465 4.68503 2.937 4.32131C3.00935 3.9576 3.18792 3.62351 3.45015 3.36128C3.71237 3.09906 4.04646 2.92048 4.41018 2.84814C4.77389 2.77579 5.15089 2.81292 5.49351 2.95484C5.83612 3.09675 6.12895 3.33707 6.33498 3.64542C6.54101 3.95376 6.65098 4.31627 6.65098 4.68711C6.65039 5.18421 6.45266 5.66078 6.10116 6.01229C5.74965 6.36379 5.27308 6.56152 4.77597 6.56211Z" fill="#E02F2F"/>
</svg>
