<svg width="23" height="21" viewBox="0 0 23 21" fill="none" xmlns="http://www.w3.org/2000/svg">
<path d="M21.959 5.91447H20.853C20.9283 5.58678 20.9639 5.25123 20.959 4.91505C21.0015 4.37927 20.9271 3.84066 20.7411 3.33638C20.5551 2.8321 20.2619 2.37414 19.8816 1.99411C19.5014 1.61407 19.0431 1.321 18.5386 1.1351C18.034 0.949211 17.4951 0.874924 16.959 0.917367C14.795 0.917367 12.99 3.18705 11.959 4.84309C10.928 3.18705 9.12298 0.917367 6.95898 0.917367C6.4229 0.874924 5.88398 0.949211 5.3794 1.1351C4.87483 1.321 4.41661 1.61407 4.03635 1.99411C3.65609 2.37414 3.36285 2.8321 3.17685 3.33638C2.99085 3.84066 2.91652 4.37927 2.95898 4.91505C2.95406 5.25123 2.98965 5.58678 3.06498 5.91447H1.95898C1.69377 5.91447 1.43941 6.01976 1.25188 6.20719C1.06434 6.39462 0.958984 6.64882 0.958984 6.91389V11.911C0.958984 12.176 1.06434 12.4303 1.25188 12.6177C1.43941 12.8051 1.69377 12.9104 1.95898 12.9104H2.95898V19.9063C2.95898 20.1714 3.06434 20.4256 3.25188 20.613C3.43941 20.8005 3.69377 20.9058 3.95898 20.9058H19.959C20.2242 20.9058 20.4786 20.8005 20.6661 20.613C20.8536 20.4256 20.959 20.1714 20.959 19.9063V12.9104H21.959C22.2242 12.9104 22.4786 12.8051 22.6661 12.6177C22.8536 12.4303 22.959 12.176 22.959 11.911V6.91389C22.959 6.64882 22.8536 6.39462 22.6661 6.20719C22.4786 6.01976 22.2242 5.91447 21.959 5.91447ZM6.95898 2.91621C8.07198 2.91621 9.37798 4.49829 10.267 5.91447H7.51498C4.95898 5.91447 4.95898 5.5147 4.95898 4.91505C4.95898 3.12309 6.10098 2.91621 6.95898 2.91621ZM10.959 18.9069H4.95898V12.9104H10.959V18.9069ZM10.959 10.9116H2.95898V7.91331H10.959V10.9116ZM16.959 2.91621C17.817 2.91621 18.959 3.12309 18.959 4.91505C18.959 5.5147 18.959 5.91447 16.403 5.91447H13.651C14.54 4.49829 15.846 2.91621 16.959 2.91621ZM18.959 18.9069H12.959V12.9104H18.959V18.9069ZM20.959 10.9116H12.959V7.91331H20.959V10.9116Z" fill="white"/>
</svg>
