<svg width="22" height="22" viewBox="0 0 22 22" fill="none" xmlns="http://www.w3.org/2000/svg">
<path d="M19.2624 2.5674C19.1679 1.62657 18.3838 0.916687 17.438 0.916687H4.43054C3.48478 0.916687 2.7006 1.62657 2.60616 2.5674L0.95634 19.0674C0.904867 19.5812 1.07406 20.0969 1.42094 20.48C1.76782 20.8632 2.26331 21.0834 2.78027 21.0834H19.0878C19.6052 21.0834 20.1007 20.8632 20.4476 20.48C20.7945 20.0969 20.9637 19.5812 20.9122 19.0674L19.2624 2.5674ZM2.78072 19.25L4.43054 2.75002H17.438L19.0896 19.25H2.78072Z" fill="white"/>
<path d="M13.7493 4.58331C12.7382 4.58331 11.916 5.40599 11.916 6.41665C11.916 7.09201 12.2873 7.67684 12.8327 7.99497V10.0833C12.8327 11.094 12.0104 11.9167 10.9993 11.9167C9.98823 11.9167 9.16601 11.094 9.16601 10.0833V7.99497C9.71134 7.67684 10.0827 7.09201 10.0827 6.41665C10.0827 5.40599 9.26045 4.58331 8.24935 4.58331C7.23824 4.58331 6.41602 5.40599 6.41602 6.41665C6.41602 7.09201 6.78735 7.67684 7.33268 7.99497V10.0833C7.33268 12.1055 8.97758 13.75 10.9993 13.75C13.0211 13.75 14.666 12.1055 14.666 10.0833V7.99497C15.2113 7.67684 15.5827 7.09201 15.5827 6.41665C15.5827 5.40599 14.7604 4.58331 13.7493 4.58331Z" fill="white"/>
</svg>
