<svg width="15" height="15" viewBox="0 0 15 15" fill="none" xmlns="http://www.w3.org/2000/svg">
<path d="M12.8033 2.19671C11.3868 0.780147 9.50332 0 7.5 0C5.49668 0 3.61324 0.780147 2.19668 2.19671C0.780117 3.61327 0 5.49668 0 7.5C0 9.50332 0.780117 11.3868 2.19668 12.8033C3.61324 14.2198 5.49668 15 7.5 15C9.50332 15 11.3868 14.2199 12.8033 12.8033C14.2199 11.3867 15 9.50332 15 7.5C15 5.49668 14.2199 3.61324 12.8033 2.19671ZM7.5 13.5279C4.17618 13.5279 1.47211 10.8238 1.47211 7.5C1.47211 7.49455 1.47229 7.48916 1.47231 7.48377C1.47231 7.48239 1.47211 7.48107 1.47211 7.4797C1.47211 7.47738 1.4724 7.47516 1.47246 7.47287C1.48708 4.1889 4.141 1.51711 7.41809 1.47316C7.42494 1.47284 7.43174 1.47214 7.43868 1.47214C7.44284 1.47214 7.44688 1.47264 7.45102 1.47275C7.46736 1.47264 7.48365 1.47214 7.50003 1.47214C10.8238 1.47214 13.5279 4.17624 13.5279 7.50003C13.5279 10.8238 10.8238 13.5279 7.5 13.5279Z" fill="#E02F2F"/>
<path d="M12.0785 7.862C11.8334 7.862 11.6347 7.6633 11.6347 7.41821C11.6347 7.17311 11.8334 6.97442 12.0785 6.97442H12.6134C12.3621 4.51125 10.3645 2.55724 7.88219 2.37378V2.83945C7.88219 3.08455 7.6835 3.28324 7.4384 3.28324C7.1933 3.28324 6.99461 3.08455 6.99461 2.83945V2.38438C4.54902 2.62403 2.60099 4.58464 2.38059 7.03574H2.85965C3.10475 7.03574 3.30344 7.23443 3.30344 7.47953C3.30344 7.72462 3.10475 7.92331 2.85965 7.92331H2.37695C2.58101 10.4139 4.5681 12.4071 7.05596 12.6208V12.0582C7.05596 11.8132 7.25465 11.6145 7.49975 11.6145C7.74484 11.6145 7.94354 11.8132 7.94354 12.0582V12.6208C10.4518 12.4053 12.4509 10.3811 12.6271 7.862H12.0785ZM9.29623 6.331L7.81357 7.81369C7.73034 7.89692 7.61749 7.94368 7.49978 7.94368C7.38209 7.94368 7.26918 7.89692 7.18598 7.81369L4.60513 5.23283C4.43181 5.05954 4.43181 4.77856 4.60513 4.60524C4.77842 4.43192 5.0594 4.43192 5.23272 4.60524L7.4998 6.87229L8.66869 5.7034C8.84198 5.53008 9.12297 5.53008 9.29629 5.7034C9.46955 5.87669 9.46955 6.15771 9.29623 6.331Z" fill="#E02F2F"/>
</svg>
