<svg width="15" height="15" viewBox="0 0 15 15" fill="none" xmlns="http://www.w3.org/2000/svg">
<path d="M14.5051 3.34641C14.444 2.93806 14.2387 2.56512 13.9263 2.29518C13.6138 2.02524 13.215 1.87617 12.8022 1.875H2.19809C1.7852 1.87617 1.3864 2.02524 1.07398 2.29518C0.761561 2.56512 0.556197 2.93806 0.495117 3.34641L7.50012 7.87922L14.5051 3.34641Z" fill="#E02F2F"/>
<path d="M7.75453 8.83125C7.6787 8.88029 7.59031 8.90638 7.5 8.90638C7.40969 8.90638 7.3213 8.88029 7.24547 8.83125L0.46875 4.44657V11.3958C0.469246 11.8542 0.651591 12.2938 0.975775 12.618C1.29996 12.9422 1.7395 13.1245 2.19797 13.125H12.802C13.2605 13.1245 13.7 12.9422 14.0242 12.618C14.3484 12.2938 14.5308 11.8542 14.5312 11.3958V4.44611L7.75453 8.83125Z" fill="#E02F2F"/>
</svg>
