<svg width="15" height="15" viewBox="0 0 15 15" fill="none" xmlns="http://www.w3.org/2000/svg">
<path d="M8.90625 0.274512V4.13818C8.90625 4.18271 8.94229 4.21875 8.98682 4.21875H12.8505L8.90625 0.274512ZM8.98682 5.15625C8.42549 5.15625 7.96875 4.69951 7.96875 4.13818V0H2.89307C2.33174 0 1.875 0.456738 1.875 1.01807V13.9819C1.875 14.5433 2.33174 15 2.89307 15H12.1069C12.6683 15 13.125 14.5433 13.125 13.9819V5.15625H8.98682ZM9.84375 11.0156H5.15625C4.89727 11.0156 4.6875 10.8059 4.6875 10.5469C4.6875 10.2879 4.89727 10.0781 5.15625 10.0781H9.84375C10.1027 10.0781 10.3125 10.2879 10.3125 10.5469C10.3125 10.8059 10.1027 11.0156 9.84375 11.0156ZM9.84375 9.14062H5.15625C4.89727 9.14062 4.6875 8.93086 4.6875 8.67188C4.6875 8.41289 4.89727 8.20312 5.15625 8.20312H9.84375C10.1027 8.20312 10.3125 8.41289 10.3125 8.67188C10.3125 8.93086 10.1027 9.14062 9.84375 9.14062ZM9.84375 7.26562H5.15625C4.89727 7.26562 4.6875 7.05586 4.6875 6.79688C4.6875 6.53789 4.89727 6.32812 5.15625 6.32812H9.84375C10.1027 6.32812 10.3125 6.53789 10.3125 6.79688C10.3125 7.05586 10.1027 7.26562 9.84375 7.26562Z" fill="#E02F2F"/>
</svg>
