<svg width="18" height="18" viewBox="0 0 18 18"  xmlns="http://www.w3.org/2000/svg">
<path d="M14.625 11.8125C14.199 11.813 13.7787 11.9101 13.3957 12.0967C13.0128 12.2833 12.6772 12.5545 12.4144 12.8897L6.08906 9.72849C6.2185 9.25149 6.2185 8.74861 6.08906 8.27161L12.4144 5.11036C14.0344 7.1888 17.4375 6.04411 17.4375 3.37505C17.4388 2.97391 17.3543 2.57713 17.1896 2.21134C17.0249 1.84556 16.7839 1.51923 16.4827 1.25427C16.1815 0.989316 15.8271 0.791853 15.4433 0.67514C15.0595 0.558426 14.6552 0.525164 14.2575 0.577584C13.8598 0.630004 13.4779 0.766895 13.1374 0.979068C12.797 1.19124 12.5059 1.47378 12.2836 1.80774C12.0614 2.14169 11.9131 2.51932 11.8489 2.91528C11.7846 3.31125 11.8057 3.71638 11.9109 4.10349L5.58563 7.26474C3.96563 5.1863 0.5625 6.33099 0.5625 9.00005C0.5625 11.6691 3.96563 12.8138 5.58563 10.7354L11.9109 13.8966C11.7992 14.3131 11.7848 14.7498 11.8688 15.1727C11.9528 15.5957 12.1329 15.9937 12.3952 16.336C12.6576 16.6783 12.9951 16.9556 13.3818 17.1466C13.7684 17.3376 14.1938 17.4372 14.625 17.4375C18.3572 17.2829 18.3544 11.9672 14.625 11.8125Z"/>
</svg>
