<svg width="36" height="36" viewBox="0 0 36 36" fill="none" xmlns="http://www.w3.org/2000/svg">
<path fill-rule="evenodd" clip-rule="evenodd" d="M18.0003 0.857422C8.57171 0.857422 0.857422 8.57171 0.857422 18.0003C0.857422 27.4288 8.57171 35.1431 18.0003 35.1431C27.4288 35.1431 35.1431 27.4288 35.1431 18.0003C35.1431 8.57171 27.4288 0.857422 18.0003 0.857422ZM29.8288 11.1431H24.8574C24.3431 8.91456 23.486 7.02885 22.4574 4.97171C25.5431 6.17171 28.286 8.22885 29.8288 11.1431ZM18.0003 4.28599C19.3717 6.34314 20.5717 8.57171 21.2574 11.1431H14.7431C15.4289 8.74314 16.6288 6.34314 18.0003 4.28599ZM4.80028 21.4288C4.45742 20.4003 4.28599 19.2003 4.28599 18.0003C4.28599 16.8003 4.45742 15.6003 4.80028 14.5717H10.6288C10.4574 15.7717 10.4574 16.8003 10.4574 18.0003C10.4574 19.2003 10.6288 20.2288 10.6288 21.4288H4.80028ZM6.17171 24.8574H11.1431C11.6574 27.086 12.5146 28.9717 13.5431 31.0288C10.4574 29.8288 7.71456 27.7717 6.17171 24.8574ZM11.1431 11.1431H6.17171C7.88599 8.22885 10.4574 6.17171 13.5431 4.97171C12.5146 7.02885 11.6574 8.91456 11.1431 11.1431ZM18.0003 31.7146C16.6288 29.6574 15.4289 27.4288 14.7431 24.8574H21.2574C20.5717 27.2574 19.3717 29.6574 18.0003 31.7146ZM21.9431 21.4288H14.0574C13.886 20.2288 13.7146 19.2003 13.7146 18.0003C13.7146 16.8003 13.886 15.7717 14.0574 14.5717H22.1146C22.286 15.7717 22.4574 16.8003 22.4574 18.0003C22.4574 19.2003 22.1146 20.2288 21.9431 21.4288ZM22.4574 31.0288C23.486 29.1431 24.3431 27.086 24.8574 24.8574H29.8288C28.286 27.7717 25.5431 29.8288 22.4574 31.0288ZM25.5431 21.4288C25.7146 20.2288 25.7146 19.2003 25.7146 18.0003C25.7146 16.8003 25.5431 15.7717 25.5431 14.5717H31.3717C31.7146 15.6003 31.886 16.8003 31.886 18.0003C31.886 19.2003 31.7146 20.4003 31.3717 21.4288H25.5431Z" fill="white"/>
</svg>
