<svg width="20" height="20" viewBox="0 0 20 20" fill="none" xmlns="http://www.w3.org/2000/svg">
<path d="M18.6638 5.13353V5.11137C18.4627 4.2966 17.9377 3.45455 17.2491 2.74546C16.4445 1.91365 15.4201 1.26081 14.4417 1.04944H14.4212C11.5034 0.490355 8.50604 0.490355 5.58827 1.04944H5.56781C3.75077 1.44319 1.77861 3.34205 1.33884 5.11137V5.13353C0.798513 7.58652 0.798513 10.1277 1.33884 12.5807V12.6011C1.65247 13.8625 2.74338 15.1886 4.00134 15.9898C4.41216 16.2575 4.85935 16.4647 5.32918 16.6051V18.579C5.32984 18.7367 5.37746 18.8907 5.46596 19.0213C5.55446 19.1519 5.67983 19.2531 5.82611 19.3122C5.97238 19.3713 6.13293 19.3854 6.28728 19.3529C6.44164 19.3204 6.58281 19.2426 6.69281 19.1296L8.69395 17.05C9.1269 17.0739 9.56327 17.0875 9.99622 17.0875C11.4783 17.0871 12.957 16.9467 14.4127 16.6682H14.4332C16.2451 16.2727 18.2189 14.3739 18.6553 12.6046V12.5841C19.1989 10.1306 19.2019 7.58823 18.6638 5.13353ZM17.0803 12.2159C16.7871 13.3699 15.2905 14.8068 14.0991 15.071C12.5515 15.3675 10.9765 15.4961 9.40133 15.4546C9.386 15.4536 9.37065 15.4562 9.35647 15.4621C9.34228 15.468 9.32964 15.4771 9.31952 15.4886L7.85872 16.9886L6.30418 18.5824C6.27931 18.6087 6.24712 18.6269 6.21179 18.6347C6.17645 18.6425 6.13959 18.6395 6.10598 18.626C6.07237 18.6126 6.04356 18.5894 6.02329 18.5595C6.00301 18.5295 5.99219 18.4941 5.99224 18.458V15.1852C5.99228 15.1589 5.9831 15.1334 5.96628 15.1132C5.94946 15.0929 5.92608 15.0792 5.9002 15.0744C5.65168 15.0154 5.41209 14.9237 5.1877 14.8017C4.1752 14.2614 3.15418 13.1534 2.91895 12.2159C2.43172 9.99862 2.43172 7.70197 2.91895 5.48467C3.21043 4.3358 4.71554 2.90228 5.89849 2.63637C8.60745 2.11805 11.3901 2.11805 14.0991 2.63637C14.7553 2.78296 15.5053 3.2824 16.0917 3.89603C16.5741 4.39546 16.9439 4.9716 17.0803 5.48978C17.5668 7.70544 17.5668 10.0003 17.0803 12.2159Z" fill="white"/>
<path d="M14.1415 12.3863C13.9201 12.8917 13.5394 13.3108 13.0575 13.5795C12.9063 13.6437 12.7493 13.6934 12.5887 13.7278C12.4063 13.6733 12.2324 13.6358 12.0773 13.5693C10.7852 13.0665 9.58236 12.3592 8.51483 11.4744C8.19773 11.204 7.89985 10.9118 7.62335 10.6C6.94057 9.81369 6.3672 8.93873 5.91881 7.99885C5.70062 7.55396 5.51653 7.09373 5.32903 6.63521C5.15858 6.2176 5.41085 5.78294 5.66994 5.47101C5.92355 5.18172 6.2355 4.94936 6.58529 4.78919C6.70837 4.72733 6.84923 4.71051 6.98342 4.74164C7.11761 4.77278 7.23667 4.8499 7.31994 4.95964C7.75545 5.44894 8.1393 5.98188 8.4654 6.54998C8.56813 6.71517 8.6033 6.91357 8.56363 7.104C8.52395 7.29444 8.41248 7.46229 8.25233 7.57271C8.1671 7.63237 8.08188 7.70055 8.00858 7.76703C7.93633 7.82054 7.87402 7.88631 7.82449 7.96135C7.78176 8.03158 7.75583 8.11073 7.74873 8.19263C7.74164 8.27454 7.75356 8.35697 7.78358 8.43351C8.11256 9.33862 8.61199 10.0937 9.35858 10.6238C9.61125 10.8025 9.88346 10.9518 10.1699 11.0687C10.357 11.1705 10.5672 11.2221 10.7802 11.2187C11.1518 11.1744 11.2745 10.7636 11.5336 10.5523C11.6525 10.4549 11.7997 10.3985 11.9532 10.3914C12.1068 10.3843 12.2585 10.427 12.3859 10.5131C12.662 10.6835 12.9279 10.8761 13.1938 11.0636C13.4568 11.2431 13.71 11.4366 13.9523 11.6432C14.0657 11.7255 14.1466 11.8448 14.1812 11.9806C14.2157 12.1163 14.2017 12.2599 14.1415 12.3863Z" fill="white"/>
<path d="M10.4897 4.21831H10.2715C10.3414 4.21491 10.4147 4.21831 10.4897 4.21831Z" fill="white"/>
<path d="M14.2601 9.32668C14.0896 9.32668 14.0061 9.1818 13.9942 9.02327C13.972 8.71134 13.955 8.39771 13.9124 8.08748C13.8387 7.56406 13.6564 7.06184 13.3771 6.61305C13.0901 6.14552 12.7082 5.74343 12.256 5.43278C11.8038 5.12214 11.2915 4.90984 10.7521 4.80964C10.5067 4.76532 10.2561 4.75509 10.0089 4.72952C9.85212 4.71248 9.64587 4.70225 9.61178 4.50793C9.60669 4.47019 9.60971 4.4318 9.62064 4.39532C9.63157 4.35884 9.65016 4.32511 9.67517 4.29639C9.70018 4.26767 9.73103 4.24462 9.76566 4.22878C9.80029 4.21294 9.8379 4.20467 9.87598 4.20452C9.91686 4.20217 9.95784 4.20217 9.99871 4.20452C10.7438 4.21083 11.4758 4.40079 12.1299 4.75758C12.784 5.11437 13.34 5.62697 13.7487 6.24998C14.0713 6.75214 14.2904 7.3137 14.393 7.90168C14.4578 8.26987 14.4817 8.64827 14.5106 9.02327C14.5165 9.06003 14.5144 9.0976 14.5046 9.13349C14.4948 9.16939 14.4775 9.20279 14.4538 9.23148C14.4301 9.26017 14.4006 9.2835 14.3672 9.29991C14.3338 9.31632 14.2973 9.32545 14.2601 9.32668Z" fill="white"/>
<path d="M13.3386 8.53071C13.3377 8.58134 13.3308 8.63168 13.3182 8.68071C13.3033 8.72999 13.2736 8.77349 13.2331 8.80529C13.1926 8.83709 13.1433 8.85565 13.0919 8.85844C13.0405 8.86124 12.9895 8.84813 12.9458 8.82091C12.9021 8.79368 12.8679 8.75366 12.8477 8.70628C12.829 8.63745 12.8203 8.56624 12.8221 8.49492C12.8261 8.11366 12.7507 7.73575 12.6006 7.38526C12.5665 7.31026 12.529 7.23355 12.4864 7.16026C12.2424 6.7397 11.8802 6.40008 11.4449 6.18355C11.1822 6.05955 10.9033 5.97346 10.6165 5.92787C10.4903 5.90742 10.3642 5.89548 10.2381 5.87844C10.2052 5.87679 10.1731 5.86843 10.1436 5.85386C10.1141 5.83929 10.088 5.81884 10.0667 5.79375C10.0455 5.76867 10.0296 5.73949 10.0201 5.70803C10.0105 5.67657 10.0076 5.64348 10.0114 5.61083C10.0114 5.57742 10.0185 5.5444 10.0321 5.51392C10.0458 5.48345 10.0658 5.45621 10.0907 5.434C10.1157 5.41178 10.145 5.3951 10.1769 5.38503C10.2088 5.37497 10.2424 5.37175 10.2756 5.3756C10.7761 5.39491 11.2664 5.52287 11.7125 5.7506C12.2573 6.02473 12.7016 6.46375 12.9824 7.00514C13.1405 7.32126 13.2464 7.66088 13.296 8.01083C13.3052 8.05647 13.312 8.10255 13.3165 8.14889C13.325 8.25117 13.3284 8.35344 13.3369 8.47958C13.3369 8.49151 13.3386 8.50685 13.3386 8.53071Z" fill="white"/>
<path d="M12.1716 8.29548C12.1619 8.33869 12.1396 8.37803 12.1074 8.40841C12.0751 8.43879 12.0346 8.45883 11.9909 8.46594H11.9534C11.8975 8.46956 11.842 8.45487 11.7953 8.42412C11.7485 8.39336 11.7131 8.3482 11.6943 8.29548C11.6837 8.26753 11.6768 8.2383 11.6738 8.20855C11.6649 8.09385 11.6478 7.97993 11.6227 7.86764C11.572 7.64033 11.4429 7.43815 11.2579 7.29662C11.1685 7.23242 11.0688 7.184 10.963 7.15344C10.8284 7.11424 10.6869 7.12446 10.554 7.09208C10.4882 7.08043 10.4298 7.04322 10.3915 6.98859C10.3531 6.93395 10.338 6.86636 10.3494 6.8006C10.3621 6.73761 10.3973 6.6814 10.4484 6.64249C10.4996 6.60359 10.5632 6.58465 10.6272 6.58923C11.4079 6.64548 11.9909 7.02048 12.1409 7.85742C12.1563 7.93512 12.1671 8.01366 12.1733 8.09264C12.1828 8.15996 12.1822 8.22833 12.1716 8.29548Z" fill="white"/>
</svg>
