<svg width="20" height="11" viewBox="0 0 20 11" fill="none" xmlns="http://www.w3.org/2000/svg">
<path d="M18.6445 10.8705C18.2082 10.9319 16.0741 10.8705 15.9633 10.8705C15.4116 10.8775 14.8794 10.6669 14.482 10.2841C14.032 9.85117 13.6298 9.3739 13.19 8.92049C13.0599 8.78285 12.9191 8.65574 12.769 8.54037C12.4178 8.26935 12.0701 8.33072 11.9048 8.74492C11.7756 9.19252 11.6855 9.65049 11.6354 10.1137C11.6065 10.533 11.3406 10.7955 10.8701 10.8245C10.5786 10.8398 10.2871 10.8449 9.99908 10.8381C8.94924 10.8314 7.91593 10.5761 6.98373 10.0932C5.9751 9.53117 5.09632 8.76275 4.40475 7.8381C3.26782 6.38583 2.3593 4.79037 1.54793 3.14549C1.50532 3.06367 0.6735 1.29435 0.653046 1.21082C0.578046 0.931279 0.653046 0.663666 0.88316 0.571621C1.02975 0.515371 3.77066 0.571621 3.81668 0.571621C4.02045 0.569854 4.21949 0.632995 4.38498 0.7519C4.55047 0.870805 4.67381 1.0393 4.73714 1.23298C5.24382 2.53035 5.93753 3.74663 6.79623 4.84321C6.91641 4.98985 7.05706 5.11844 7.21385 5.22503C7.43714 5.37674 7.64851 5.3239 7.74055 5.06651C7.84962 4.70939 7.91376 4.34006 7.93146 3.96708C7.9468 3.2273 7.93146 2.7398 7.89055 2.00174C7.86328 1.52787 7.69623 1.11196 6.99737 0.979008C6.7826 0.941508 6.76385 0.764234 6.90191 0.586962C7.18998 0.218779 7.58373 0.160825 8.02521 0.138666C8.68317 0.101166 9.34112 0.126734 9.99908 0.138666H10.1423C10.4286 0.137621 10.7143 0.16676 10.9945 0.225598C11.1602 0.259101 11.3106 0.34524 11.4233 0.471178C11.5361 0.597115 11.6051 0.756108 11.6201 0.924461C11.6538 1.11113 11.668 1.30077 11.6627 1.49037C11.6457 2.29833 11.6065 3.10458 11.5979 3.91253C11.5901 4.23243 11.6193 4.55217 11.6849 4.86537C11.7786 5.29492 12.0735 5.40231 12.3667 5.09208C12.7463 4.69103 13.0945 4.26135 13.4082 3.80685C13.9628 2.97851 14.4203 2.08914 14.7718 1.15628C14.9627 0.677302 15.1127 0.571621 15.6241 0.571621H18.532C18.7049 0.568587 18.8773 0.591571 19.0434 0.639802C19.1022 0.655249 19.1571 0.682667 19.2048 0.720338C19.2525 0.758009 19.2919 0.805123 19.3206 0.858728C19.3492 0.912332 19.3665 0.971273 19.3713 1.03186C19.3761 1.09245 19.3683 1.15337 19.3485 1.21082C19.2053 1.84833 18.861 2.39208 18.4962 2.91537C17.9048 3.75401 17.2809 4.57049 16.6758 5.39549C16.5993 5.5049 16.5292 5.61874 16.4661 5.7364C16.2377 6.14719 16.2548 6.3773 16.5854 6.71992C17.1139 7.26196 17.6781 7.77162 18.1877 8.33072C18.5619 8.73716 18.8996 9.17579 19.1968 9.64151C19.5701 10.2194 19.34 10.7716 18.6445 10.8705Z" fill="white"/>
</svg>
