<svg width="20" height="20" viewBox="0 0 20 20" fill="none" xmlns="http://www.w3.org/2000/svg">
<path d="M16.6128 3.38637C15.0521 1.81017 12.9796 0.84354 10.7691 0.660835C8.55852 0.47813 6.35544 1.09138 4.55721 2.38996C2.75898 3.68854 1.48399 5.58698 0.962209 7.74283C0.44043 9.89867 0.706216 12.17 1.71162 14.1472L0.72469 18.9386C0.714449 18.9863 0.714159 19.0356 0.723838 19.0834C0.733517 19.1312 0.752956 19.1765 0.78094 19.2165C0.821934 19.2771 0.880451 19.3238 0.948676 19.3503C1.0169 19.3768 1.09159 19.3818 1.16276 19.3648L5.85878 18.2517C7.83037 19.2317 10.0857 19.4804 12.2234 18.9535C14.3612 18.4267 16.2427 17.1586 17.5331 15.3747C18.8236 13.5909 19.4394 11.407 19.2708 9.2118C19.1023 7.01657 18.1604 4.95232 16.6128 3.38637ZM15.1486 15.0727C14.0688 16.1495 12.6783 16.8603 11.1732 17.1049C9.66799 17.3496 8.12401 17.1157 6.75878 16.4364L6.10424 16.1125L3.22526 16.7943L3.23378 16.7585L3.83037 13.8608L3.50992 13.2284C2.81235 11.8584 2.56627 10.3028 2.80694 8.78439C3.04761 7.26599 3.76267 5.8627 4.84969 4.77557C6.21555 3.41013 8.0678 2.64307 9.99912 2.64307C11.9304 2.64307 13.7827 3.41013 15.1486 4.77557C15.1602 4.78891 15.1727 4.80144 15.1861 4.81307C16.535 6.18203 17.288 8.02875 17.281 9.95063C17.274 11.8725 16.5075 13.7137 15.1486 15.0727Z" fill="white"/>
<path d="M14.8935 12.9471C14.5406 13.5028 13.9832 14.1829 13.2827 14.3517C12.0554 14.6483 10.1719 14.3619 7.82811 12.1767L7.79913 12.1511C5.73834 10.2403 5.20311 8.64997 5.33266 7.38861C5.40425 6.6727 6.00084 6.02497 6.50368 5.60224C6.58318 5.53439 6.67745 5.48609 6.77896 5.46119C6.88046 5.43628 6.98639 5.43548 7.08826 5.45884C7.19013 5.48219 7.28513 5.52906 7.36564 5.59569C7.44616 5.66233 7.50998 5.74688 7.55198 5.84258L8.3105 7.54713C8.35979 7.65765 8.37806 7.77951 8.36334 7.89963C8.34863 8.01974 8.30149 8.13359 8.22698 8.22895L7.84345 8.72667C7.76116 8.82944 7.7115 8.95449 7.70087 9.08572C7.69024 9.21695 7.71912 9.34836 7.78379 9.46304C7.99857 9.83974 8.51334 10.3937 9.08436 10.9068C9.72527 11.4863 10.4361 12.0164 10.8861 12.1971C11.0065 12.2463 11.1389 12.2583 11.2662 12.2316C11.3935 12.2049 11.5098 12.1406 11.6003 12.0471L12.0452 11.5988C12.131 11.5142 12.2378 11.4538 12.3545 11.4239C12.4713 11.3939 12.5939 11.3955 12.7099 11.4284L14.5116 11.9397C14.611 11.9702 14.7021 12.023 14.778 12.0941C14.8538 12.1652 14.9124 12.2527 14.9492 12.3499C14.9861 12.4471 15.0002 12.5515 14.9905 12.655C14.9809 12.7585 14.9477 12.8584 14.8935 12.9471Z" fill="white"/>
</svg>
