<svg width="15" height="26" viewBox="0 0 15 26" fill="none" xmlns="http://www.w3.org/2000/svg">
<path d="M15 13.0593C15.0014 12.8139 14.9541 12.5707 14.8609 12.3435C14.7676 12.1164 14.6302 11.9097 14.4565 11.7355L3.21227 0.548342C2.85938 0.197245 2.38076 -1.04067e-07 1.88171 -8.2252e-08C1.38265 -6.04374e-08 0.904027 0.197245 0.551139 0.548342C0.198251 0.89944 6.01307e-08 1.37563 8.18346e-08 1.87216C1.03538e-07 2.36868 0.198251 2.84487 0.551139 3.19597L10.4835 13.0593L0.569881 22.9227C0.262864 23.2794 0.102434 23.7382 0.120652 24.2074C0.13887 24.6767 0.334394 25.1218 0.668149 25.4539C1.00191 25.786 1.44931 25.9805 1.92096 25.9986C2.39261 26.0167 2.85377 25.8571 3.21227 25.5517L14.4565 14.3645C14.8027 14.0172 14.9979 13.5485 15 13.0593Z" fill="#333333"/>
</svg>
