<svg width="18" height="18" viewBox="0 0 18 18" fill="none" xmlns="http://www.w3.org/2000/svg">
<path d="M15.75 3.75H2.25C2.05109 3.75 1.86032 3.82902 1.71967 3.96967C1.57902 4.11032 1.5 4.30109 1.5 4.5C1.5 4.69891 1.57902 4.88968 1.71967 5.03033C1.86032 5.17098 2.05109 5.25 2.25 5.25H3.75V14.25C3.75018 14.8467 3.98729 15.4189 4.40921 15.8408C4.83113 16.2627 5.40332 16.4998 6 16.5H12C12.5967 16.4999 13.1689 16.2627 13.5908 15.8408C14.0127 15.4189 14.2498 14.8467 14.25 14.25V5.25H15.75C15.9489 5.25 16.1397 5.17098 16.2803 5.03033C16.421 4.88968 16.5 4.69891 16.5 4.5C16.5 4.30109 16.421 4.11032 16.2803 3.96967C16.1397 3.82902 15.9489 3.75 15.75 3.75ZM8.25 12C8.25 12.1989 8.17098 12.3897 8.03033 12.5303C7.88968 12.671 7.69892 12.75 7.5 12.75C7.30109 12.75 7.11032 12.671 6.96967 12.5303C6.82902 12.3897 6.75 12.1989 6.75 12V8.25C6.75 8.05109 6.82902 7.86033 6.96967 7.71967C7.11032 7.57902 7.30109 7.5 7.5 7.5C7.69892 7.5 7.88968 7.57902 8.03033 7.71967C8.17098 7.86033 8.25 8.05109 8.25 8.25V12ZM11.25 12C11.25 12.1989 11.171 12.3897 11.0303 12.5303C10.8897 12.671 10.6989 12.75 10.5 12.75C10.3011 12.75 10.1103 12.671 9.96967 12.5303C9.82902 12.3897 9.75 12.1989 9.75 12V8.25C9.75 8.05109 9.82902 7.86033 9.96967 7.71967C10.1103 7.57902 10.3011 7.5 10.5 7.5C10.6989 7.5 10.8897 7.57902 11.0303 7.71967C11.171 7.86033 11.25 8.05109 11.25 8.25V12Z" fill="#333333" fill-opacity="0.5"/>
<path d="M7.5 3H10.5C10.6989 3 10.8897 2.92098 11.0303 2.78033C11.171 2.63968 11.25 2.44891 11.25 2.25C11.25 2.05109 11.171 1.86032 11.0303 1.71967C10.8897 1.57902 10.6989 1.5 10.5 1.5H7.5C7.30109 1.5 7.11032 1.57902 6.96967 1.71967C6.82902 1.86032 6.75 2.05109 6.75 2.25C6.75 2.44891 6.82902 2.63968 6.96967 2.78033C7.11032 2.92098 7.30109 3 7.5 3Z" fill="#333333" fill-opacity="0.5"/>
</svg>
