<?xml version="1.0" encoding="utf-8"?><svg viewBox="0 0 23 22" xmlns="http://www.w3.org/2000/svg" xmlns:xlink="http://www.w3.org/1999/xlink"><style>:root>svg{display:none}:root>svg:target{display:block}</style><svg fill="none" viewBox="0 0 10 13" id="address" xmlns="http://www.w3.org/2000/svg"><path d="M9.016 2.57A4.688 4.688 0 005.308.027a5.327 5.327 0 00-1.064 0A4.689 4.689 0 00.535 2.57a5.065 5.065 0 00.695 5.575l3.184 3.871a.47.47 0 00.724 0l3.184-3.871a5.065 5.065 0 00.694-5.575zm-4.24 3.992a1.875 1.875 0 110-3.75 1.875 1.875 0 010 3.75z" fill="#E02F2F"/></svg><svg fill="none" viewBox="0 0 23 21" id="btn_catalog" xmlns="http://www.w3.org/2000/svg"><path d="M21.959 5.914h-1.106a4.19 4.19 0 00.106-.999 3.713 3.713 0 00-2.42-3.78 3.72 3.72 0 00-1.58-.218c-2.164 0-3.969 2.27-5 3.926-1.031-1.656-2.836-3.926-5-3.926a3.72 3.72 0 00-4 3.998c-.005.336.03.672.106 1H1.959a1 1 0 00-1 .999v4.997a1 1 0 001 1h1v6.995a.999.999 0 001 1h16a1 1 0 001-1V12.91h1a1 1 0 001-.999V6.914a1 1 0 00-1-1zm-15-2.998c1.113 0 2.419 1.582 3.308 2.998H7.515c-2.556 0-2.556-.4-2.556-.999 0-1.792 1.142-1.999 2-1.999zm4 15.99h-6V12.91h6v5.997zm0-7.994h-8V7.913h8v2.999zm6-7.996c.858 0 2 .207 2 1.999 0 .6 0 1-2.556 1h-2.752c.889-1.417 2.195-2.999 3.308-2.999zm2 15.99h-6V12.91h6v5.997zm2-7.994h-8V7.913h8v2.999z" fill="#fff"/></svg><svg fill="none" viewBox="0 0 22 22" id="cart" xmlns="http://www.w3.org/2000/svg"><path d="M19.262 2.567a1.828 1.828 0 00-1.824-1.65H4.431c-.946 0-1.73.71-1.825 1.65l-1.65 16.5a1.837 1.837 0 001.824 2.016h16.308c.517 0 1.013-.22 1.36-.603.346-.383.516-.899.464-1.413l-1.65-16.5zM2.781 19.25l1.65-16.5h13.007l1.652 16.5H2.78z" fill="#fff"/><path d="M13.75 4.583a1.835 1.835 0 00-1.834 1.834c0 .675.371 1.26.917 1.578v2.088c0 1.011-.823 1.834-1.834 1.834a1.835 1.835 0 01-1.833-1.834V7.995c.545-.318.917-.903.917-1.578 0-1.011-.823-1.834-1.834-1.834a1.835 1.835 0 00-1.833 1.834c0 .675.371 1.26.917 1.578v2.088a3.67 3.67 0 003.666 3.667 3.67 3.67 0 003.667-3.667V7.995c.545-.318.917-.903.917-1.578 0-1.011-.823-1.834-1.834-1.834z" fill="#fff"/></svg><svg fill="none" viewBox="0 0 15 15" id="clock" xmlns="http://www.w3.org/2000/svg"><path d="M12.803 2.197A7.45 7.45 0 007.5 0C5.497 0 3.613.78 2.197 2.197A7.45 7.45 0 000 7.5a7.45 7.45 0 002.197 5.303A7.451 7.451 0 007.5 15a7.45 7.45 0 005.303-2.197A7.45 7.45 0 0015 7.5a7.45 7.45 0 00-2.197-5.303zM7.5 13.527A6.035 6.035 0 011.472 7.5v-.016-.004-.007a6.034 6.034 0 015.946-6H7.5A6.035 6.035 0 0113.528 7.5 6.035 6.035 0 017.5 13.528z" fill="#E02F2F"/><path d="M12.079 7.862a.444.444 0 010-.888h.534a5.15 5.15 0 00-4.73-4.6v.465a.444.444 0 11-.888 0v-.455A5.149 5.149 0 002.38 7.036h.479a.444.444 0 110 .887h-.483a5.148 5.148 0 004.679 4.698v-.563a.444.444 0 01.888 0v.563a5.148 5.148 0 004.683-4.759h-.549zM9.296 6.331L7.814 7.814a.444.444 0 01-.628 0l-2.58-2.581a.444.444 0 11.627-.628L7.5 6.872l1.169-1.169a.444.444 0 11.627.628z" fill="#E02F2F"/></svg><svg fill="none" viewBox="0 0 15 15" id="email" xmlns="http://www.w3.org/2000/svg"><path d="M14.505 3.346a1.727 1.727 0 00-1.703-1.471H2.198A1.727 1.727 0 00.495 3.346L7.5 7.88l7.005-4.533z" fill="#E02F2F"/><path d="M7.755 8.831a.469.469 0 01-.51 0L.47 4.447v6.949a1.731 1.731 0 001.729 1.729h10.604a1.731 1.731 0 001.73-1.73V4.447L7.754 8.831z" fill="#E02F2F"/></svg><svg fill="none" viewBox="0 0 15 15" id="phone" xmlns="http://www.w3.org/2000/svg"><path d="M14.079 10.594c-.039-.03-2.829-2.042-3.595-1.898-.366.065-.575.314-.994.814-.068.08-.23.273-.356.41a6.422 6.422 0 01-4.052-4.052c.138-.126.331-.288.414-.357.496-.418.746-.627.811-.993C6.44 3.758 4.43.948 4.409.923a1.073 1.073 0 00-.8-.454C2.795.469.47 3.486.47 3.994c0 .03.042 3.032 3.744 6.797 3.762 3.698 6.763 3.74 6.793 3.74.508 0 3.525-2.326 3.525-3.14a1.07 1.07 0 00-.452-.797z" fill="#E02F2F"/></svg><svg fill="none" viewBox="0 0 15 15" id="req" xmlns="http://www.w3.org/2000/svg"><path d="M8.906.275v3.863c0 .045.036.08.08.08h3.864L8.907.276zm.08 4.881A1.02 1.02 0 017.97 4.138V0H2.893a1.02 1.02 0 00-1.018 1.018v12.964A1.02 1.02 0 002.893 15h9.214a1.02 1.02 0 001.018-1.018V5.156H8.987zm.858 5.86H5.156a.469.469 0 110-.938h4.688a.469.469 0 110 .938zm0-1.875H5.156a.469.469 0 110-.938h4.688a.469.469 0 110 .938zm0-1.875H5.156a.469.469 0 110-.938h4.688a.469.469 0 110 .938z" fill="#E02F2F"/></svg><svg viewBox="0 0 22 22" id="search" xmlns="http://www.w3.org/2000/svg"><path d="M21.618 19.774l-4.23-4.228a9.606 9.606 0 001.986-5.859 9.622 9.622 0 00-2.838-6.85A9.626 9.626 0 009.684 0a9.627 9.627 0 00-6.85 2.837c-3.778 3.778-3.778 9.923 0 13.7a9.626 9.626 0 006.85 2.837 9.611 9.611 0 005.861-1.984l4.229 4.228a1.3 1.3 0 00.922.382 1.303 1.303 0 00.922-2.226zm-16.94-5.08c-2.762-2.761-2.761-7.253 0-10.013a7.037 7.037 0 015.006-2.074c1.892 0 3.67.737 5.008 2.074a7.033 7.033 0 012.074 5.006 7.033 7.033 0 01-2.074 5.006 7.035 7.035 0 01-5.008 2.074 7.036 7.036 0 01-5.007-2.074z"/></svg><svg viewBox="0 0 18 18" id="share" xmlns="http://www.w3.org/2000/svg"><path d="M14.625 11.813a2.814 2.814 0 00-2.21 1.077L6.088 9.728c.13-.477.13-.98 0-1.456l6.325-3.162c1.62 2.079 5.024.934 5.024-1.735a2.812 2.812 0 10-5.527.728L5.586 7.265C3.966 5.186.562 6.33.562 9c0 2.67 3.404 3.814 5.024 1.735l6.325 3.162a2.812 2.812 0 002.714 3.54c3.732-.154 3.73-5.47 0-5.625z"/></svg><svg fill="none" viewBox="0 0 20 20" id="viber" xmlns="http://www.w3.org/2000/svg"><path d="M18.664 5.134V5.11c-.201-.814-.726-1.656-1.415-2.366-.804-.831-1.829-1.484-2.807-1.696h-.02a23.468 23.468 0 00-8.834 0h-.02c-1.817.394-3.79 2.293-4.23 4.062v.023a17.31 17.31 0 000 7.447v.02c.314 1.261 1.405 2.588 2.663 3.389.411.268.858.475 1.328.615v1.974a.794.794 0 001.364.55l2-2.079a23.537 23.537 0 005.719-.382h.021c1.812-.395 3.786-2.294 4.222-4.063v-.02c.544-2.454.547-4.997.009-7.451zm-1.584 7.082c-.293 1.154-1.79 2.59-2.98 2.855a21.9 21.9 0 01-4.699.384.1.1 0 00-.081.034l-1.461 1.5-1.555 1.593a.18.18 0 01-.312-.124v-3.273a.112.112 0 00-.092-.11 2.888 2.888 0 01-.712-.273c-1.013-.54-2.034-1.649-2.269-2.586a15.682 15.682 0 010-6.731c.291-1.15 1.797-2.583 2.98-2.849a21.819 21.819 0 018.2 0c.656.147 1.406.646 1.993 1.26.482.5.852 1.076.988 1.594.487 2.215.487 4.51 0 6.726z" fill="#fff"/><path d="M14.142 12.386a2.527 2.527 0 01-1.085 1.194 2.585 2.585 0 01-.468.148c-.183-.055-.357-.092-.512-.159a12.931 12.931 0 01-3.562-2.095 8.975 8.975 0 01-.892-.874A11.557 11.557 0 015.92 7.999c-.218-.445-.402-.905-.59-1.364-.17-.417.082-.852.34-1.164.255-.29.567-.522.916-.682a.59.59 0 01.735.17c.435.49.82 1.023 1.145 1.591a.757.757 0 01-.213 1.023c-.085.06-.17.128-.243.194a.769.769 0 00-.185.194.534.534 0 00-.04.473c.329.905.828 1.66 1.575 2.19.252.178.524.328.81.445.188.101.398.153.611.15.372-.045.495-.455.754-.667a.714.714 0 01.852-.039c.276.17.542.363.808.55.263.18.516.374.758.58a.6.6 0 01.19.743zM10.49 4.218h-.219c.07-.003.144 0 .219 0z" fill="#fff"/><path d="M14.26 9.327c-.17 0-.254-.145-.266-.304-.022-.312-.039-.625-.082-.936a3.92 3.92 0 00-3.16-3.278c-.245-.044-.496-.054-.743-.08-.157-.017-.363-.027-.397-.221a.268.268 0 01.264-.303 4.53 4.53 0 013.873 2.045c.322.502.541 1.064.644 1.652.065.368.089.746.118 1.121a.261.261 0 01-.25.304z" fill="#fff"/><path d="M13.339 8.53a.65.65 0 01-.02.15.25.25 0 01-.471.026.736.736 0 01-.026-.211 2.745 2.745 0 00-.221-1.11 2.482 2.482 0 00-1.156-1.202 3.07 3.07 0 00-.829-.255c-.126-.02-.252-.033-.378-.05a.24.24 0 01-.227-.267.238.238 0 01.265-.235c.5.019.99.147 1.437.375.544.274.989.713 1.27 1.254.157.316.263.656.313 1.006.01.045.016.092.02.138.009.102.012.204.02.33 0 .013.003.028.003.052z" fill="#fff"/><path d="M12.172 8.295a.222.222 0 01-.181.17h-.038a.257.257 0 01-.259-.17.342.342 0 01-.02-.086 2.422 2.422 0 00-.051-.341.99.99 0 00-.365-.571.964.964 0 00-.295-.144c-.135-.039-.276-.029-.409-.06a.252.252 0 01-.205-.292.264.264 0 01.278-.212c.78.056 1.364.431 1.514 1.268.015.078.026.157.032.236a.686.686 0 01-.001.202z" fill="#fff"/></svg><svg fill="none" viewBox="0 0 20 11" id="vk" xmlns="http://www.w3.org/2000/svg"><path d="M18.645 10.87c-.437.062-2.57 0-2.682 0a2.097 2.097 0 01-1.481-.586c-.45-.433-.852-.91-1.292-1.364a3.588 3.588 0 00-.421-.38c-.351-.27-.699-.21-.864.205-.13.448-.22.905-.27 1.369-.028.419-.294.681-.765.71-.291.016-.583.02-.87.014a6.648 6.648 0 01-3.016-.745 8.212 8.212 0 01-2.58-2.255C3.269 6.386 2.36 4.79 1.549 3.145c-.043-.081-.875-1.85-.895-1.934-.075-.28 0-.547.23-.64.147-.056 2.888 0 2.934 0a.96.96 0 01.92.662 14.284 14.284 0 002.06 3.61c.12.147.26.275.417.382.223.152.435.099.527-.158.109-.358.173-.727.19-1.1a22.9 22.9 0 00-.04-1.965c-.028-.474-.195-.89-.894-1.023-.214-.037-.233-.215-.095-.392.288-.368.682-.426 1.123-.448C8.683.1 9.341.127 10 .139h.143c.287-.001.572.028.853.087a.784.784 0 01.625.698c.034.187.048.377.043.566-.017.808-.056 1.615-.065 2.423-.008.32.021.64.087.952.094.43.388.537.682.227.38-.401.727-.83 1.041-1.285a13.009 13.009 0 001.364-2.65c.19-.48.34-.585.852-.585h2.908c.173-.003.345.02.511.068a.441.441 0 01.306.57c-.144.638-.488 1.182-.853 1.705-.591.839-1.215 1.655-1.82 2.48-.077.11-.147.224-.21.341-.228.411-.211.641.12.984.528.542 1.092 1.052 1.602 1.61.374.407.712.846 1.009 1.312.373.577.143 1.13-.552 1.229z" fill="#fff"/></svg><svg fill="none" viewBox="0 0 20 20" id="whatsapp" xmlns="http://www.w3.org/2000/svg"><path d="M16.613 3.386A9.302 9.302 0 001.712 14.147L.725 18.94a.355.355 0 00.056.277.36.36 0 00.382.149l4.696-1.113A9.3 9.3 0 0016.613 3.386zm-1.464 11.687a7.285 7.285 0 01-8.39 1.363l-.655-.323-2.879.681.009-.035.596-2.898-.32-.633a7.282 7.282 0 1111.639 1.845z" fill="#fff"/><path d="M14.893 12.947c-.352.556-.91 1.236-1.61 1.405-1.228.296-3.111.01-5.455-2.175L7.8 12.15C5.74 10.241 5.203 8.65 5.333 7.39c.071-.716.668-1.364 1.17-1.787a.67.67 0 011.049.24l.758 1.705a.666.666 0 01-.083.682l-.384.498a.66.66 0 00-.06.736c.216.377.73.93 1.301 1.444.641.58 1.352 1.11 1.802 1.29a.651.651 0 00.714-.15l.445-.448a.682.682 0 01.665-.17l1.802.51a.682.682 0 01.381 1.008z" fill="#fff"/></svg></svg>