<svg width="22" height="22" viewBox="0 0 22 22" fill="none" xmlns="http://www.w3.org/2000/svg">
<path d="M0.697262 3.12764C0.697262 2.52389 0.922596 1.93614 1.33185 1.48748C1.78931 0.985828 2.44127 0.69818 3.12004 0.69818L6.37279 0.69818C7.60722 0.698181 8.64199 1.61941 8.77958 2.841C8.86065 3.55993 9.00869 4.27395 9.21955 4.96355C9.48353 5.82662 9.25442 6.75628 8.62147 7.38936L7.30358 8.70737C8.68454 11.2315 10.7893 13.3363 13.313 14.7171L14.631 13.399C15.264 12.766 16.1937 12.5369 17.0569 12.801C17.7465 13.0119 18.4605 13.1599 19.1793 13.241C20.401 13.3785 21.3223 14.4132 21.3223 15.6477L21.3223 18.9003C21.3223 19.5792 21.0346 20.2312 20.533 20.6886C20.0294 21.1481 19.3505 21.3756 18.6706 21.313C16.3367 21.0983 14.0832 20.4797 11.9727 19.4743C9.92073 18.4971 8.06267 17.1839 6.4497 15.5709C4.83686 13.958 3.52338 12.0999 2.54626 10.0479C1.54107 7.93721 0.922344 5.68374 0.707458 3.34983C0.700533 3.27568 0.697262 3.20166 0.697262 3.12764ZM7.71573 5.68072C7.71573 5.59914 7.70352 5.51618 7.67872 5.43499C7.43878 4.65072 7.27047 3.83876 7.17833 3.02139C7.13263 2.61566 6.78632 2.30951 6.37279 2.30951L3.12004 2.30951C2.88968 2.30951 2.67743 2.4033 2.52234 2.57349C2.36511 2.74558 2.29046 2.9689 2.31211 3.20204C3.11816 11.9602 10.0603 18.9023 18.8184 19.7085C19.0516 19.73 19.2749 19.6552 19.4471 19.4983C19.6172 19.3429 19.7109 19.1307 19.7109 18.9003L19.7109 15.6477C19.7109 15.2341 19.4049 14.8878 18.9991 14.842C18.1817 14.75 17.3697 14.5817 16.5855 14.3419C16.2934 14.2525 15.9811 14.3276 15.7704 14.5384L13.6244 16.6843L13.1056 16.4263C9.87151 14.8172 7.20401 12.1493 5.59457 8.91458L5.33625 8.39581L7.48221 6.24997C7.63416 6.09803 7.71573 5.89308 7.71573 5.68072Z" fill="white"/>
</svg>
