<svg width="32" height="40" viewBox="0 0 32 40" fill="none" xmlns="http://www.w3.org/2000/svg">
<path d="M26.553 16.1218L28.7213 12.7444C30.397 10.2234 30.5508 7.00043 29.1216 4.33136C27.6916 1.65955 24.9209 0 21.8902 0H10.1098C7.0791 0 4.30841 1.65955 2.87836 4.33105C1.44922 7.00043 1.60272 10.2234 3.27844 12.7448L5.44702 16.1218C2.45996 18.9896 0.765625 22.9382 0.765625 27.1094C0.765625 32.2229 3.31476 36.9687 7.58447 39.8044L7.87927 40H24.1207L24.4155 39.8044C28.6852 36.9687 31.2344 32.2229 31.2344 27.1094C31.2344 22.9382 29.54 18.9896 26.553 16.1218ZM22.8652 8.85315L20.4885 12.5473C19.0402 12.1008 17.5347 11.875 16 11.875C14.4653 11.875 12.9598 12.1008 11.5115 12.5473L9.14514 8.86902L9.13477 8.85315C8.81342 8.37128 8.92664 7.93182 9.07709 7.64954C9.22815 7.36755 9.52997 7.03125 10.1098 7.03125H21.8902C22.47 7.03125 22.7719 7.36755 22.922 7.64832C23.0734 7.93182 23.1866 8.37128 22.8652 8.85315Z" fill="#333333"/>
</svg>
